<?xml version="1.0" encoding="utf-8"?>
<!-- Generator: Adobe Illustrator 26.5.1, SVG Export Plug-In . SVG Version: 6.00 Build 0)  -->
<svg version="1.1" id="Laag_1" xmlns="http://www.w3.org/2000/svg" xmlns:xlink="http://www.w3.org/1999/xlink" x="0px" y="0px"
	 viewBox="0 0 1280 800" style="enable-background:new 0 0 1280 800;" xml:space="preserve">
<style type="text/css">
	.st0{fill:#808080;}
	.st1{fill:#818181;}
	.st2{fill:#828282;}
	.st3{fill:#838383;}
	.st4{fill:#848484;}
	.st5{fill:#858585;}
	.st6{fill:#868686;}
	.st7{fill:#878787;}
	.st8{fill:#888888;}
	.st9{fill:#898989;}
	.st10{fill:#8A8A8A;}
	.st11{fill:#8B8B8B;}
	.st12{fill:#8C8C8C;}
	.st13{fill:#8D8D8D;}
	.st14{fill:#8E8E8E;}
	.st15{fill:#8F8F8F;}
	.st16{fill:#909090;}
	.st17{fill:#919191;}
	.st18{fill:#929292;}
	.st19{fill:#939393;}
	.st20{fill:#949494;}
	.st21{fill:#959595;}
	.st22{fill:#969696;}
	.st23{fill:#979797;}
	.st24{fill:#989898;}
	.st25{fill:#999999;}
	.st26{fill:#9A9A9A;}
	.st27{fill:#9B9B9B;}
	.st28{fill:#9C9C9C;}
	.st29{fill:#9D9D9D;}
	.st30{fill:#9E9E9E;}
	.st31{fill:#9F9F9F;}
	.st32{fill:#A0A0A0;}
	.st33{fill:#A1A1A1;}
	.st34{fill:#A2A2A2;}
	.st35{fill:#A3A3A3;}
	.st36{fill:#A4A4A4;}
	.st37{fill:#A5A5A5;}
	.st38{fill:#A6A6A6;}
	.st39{fill:#A7A7A7;}
	.st40{fill:#A8A8A8;}
	.st41{fill:#A9A9A9;}
	.st42{fill:#AAAAAA;}
	.st43{fill:#ABABAB;}
	.st44{fill:#ACACAC;}
	.st45{fill:#ADADAD;}
	.st46{fill:#AEAEAE;}
	.st47{fill:#AFAFAF;}
	.st48{fill:#B0B0B0;}
	.st49{fill:#B1B1B1;}
	.st50{fill:#B2B2B2;}
	.st51{fill:#B3B3B3;}
	.st52{fill:#B4B4B4;}
	.st53{fill:#B5B5B5;}
	.st54{fill:#B6B6B6;}
	.st55{fill:#B7B7B7;}
	.st56{fill:#B8B8B8;}
	.st57{fill:#B9B9B9;}
	.st58{fill:#BABABA;}
	.st59{fill:#BBBBBB;}
	.st60{fill:#BCBCBC;}
	.st61{fill:#BDBDBD;}
	.st62{fill:#BEBEBE;}
	.st63{fill:#BFBFBF;}
	.st64{fill:#C0C0C0;}
	.st65{fill:#C1C1C1;}
	.st66{fill:#C2C2C2;}
	.st67{fill:#C3C3C3;}
	.st68{fill:#C4C4C4;}
	.st69{fill:#C5C5C5;}
	.st70{fill:#C6C6C6;}
	.st71{fill:#C7C7C7;}
	.st72{fill:#C8C8C8;}
	.st73{fill:#C9C9C9;}
	.st74{fill:#CACACA;}
	.st75{fill:#CBCBCB;}
	.st76{fill:#CCCCCC;}
	.st77{fill:#CDCDCD;}
	.st78{fill:#CECECE;}
	.st79{fill:#CFCFCF;}
	.st80{fill:#D0D0D0;}
	.st81{fill:#D1D1D1;}
	.st82{fill:#D2D2D2;}
	.st83{fill:#D3D3D3;}
	.st84{fill:#D4D4D4;}
	.st85{fill:#D5D5D5;}
	.st86{fill:#D6D6D6;}
	.st87{fill:#D7D7D7;}
	.st88{fill:#D8D8D8;}
	.st89{fill:#D9D9D9;}
	.st90{fill:#DADADA;}
	.st91{fill:#DBDBDB;}
	.st92{fill:#DCDCDC;}
	.st93{fill:#DDDDDD;}
	.st94{fill:#DEDEDE;}
	.st95{fill:#DFDFDF;}
	.st96{fill:#E0E0E0;}
	.st97{fill:#E1E1E1;}
	.st98{fill:#E2E2E2;}
	.st99{fill:#E3E3E3;}
	.st100{fill:#E4E4E4;}
	.st101{fill:#E5E5E5;}
	.st102{fill:#E6E6E6;}
	.st103{fill:#E7E7E7;}
	.st104{fill:#E8E8E8;}
	.st105{fill:#E9E9E9;}
	.st106{fill:#EAEAEA;}
	.st107{fill:#EBEBEB;}
	.st108{fill:#ECECEC;}
	.st109{fill:#EDEDED;}
	.st110{fill:#EEEEEE;}
	.st111{fill:#EFEFEF;}
	.st112{fill:#F0F0F0;}
	.st113{fill:#F1F1F1;}
	.st114{fill:#F2F2F2;}
	.st115{fill:#7F7F7F;}
	.st116{fill:#7E7E7E;}
	.st117{fill:#7D7D7D;}
	.st118{fill:#7C7C7C;}
	.st119{fill:#7B7B7B;}
	.st120{fill:#7A7A7A;}
	.st121{fill:#797979;}
	.st122{fill:#787878;}
	.st123{fill:#777777;}
	.st124{fill:#767676;}
	.st125{fill:#757575;}
	.st126{fill:#747474;}
	.st127{fill:#737373;}
	.st128{fill:#727272;}
	.st129{fill:#717171;}
	.st130{fill:#707070;}
	.st131{fill:#6F6F6F;}
	.st132{fill:#6E6E6E;}
	.st133{fill:#6D6D6D;}
	.st134{fill:#6C6C6C;}
	.st135{fill:#6B6B6B;}
	.st136{fill:#6A6A6A;}
	.st137{fill:#696969;}
	.st138{fill:#686868;}
	.st139{fill:#676767;}
	.st140{fill:#666666;}
	.st141{fill:none;stroke:#000000;stroke-width:20;stroke-miterlimit:10;}
</style>
<g id="Desktop">
	<g>
		<rect x="525.1" y="662" class="st0" width="292" height="13.3"/>
		<rect x="525.5" y="661.6" class="st1" width="291.3" height="13.2"/>
		<rect x="525.8" y="661.2" class="st2" width="290.6" height="13.2"/>
		<rect x="526.2" y="660.8" class="st3" width="289.8" height="13.2"/>
		<rect x="526.6" y="660.5" class="st4" width="289.1" height="13.2"/>
		<rect x="526.9" y="660.1" class="st5" width="288.4" height="13.1"/>
		<rect x="527.3" y="659.7" class="st6" width="287.6" height="13.1"/>
		<rect x="527.6" y="659.4" class="st7" width="286.9" height="13.1"/>
		<rect x="528" y="659" class="st8" width="286.2" height="13"/>
		<rect x="528.4" y="658.6" class="st9" width="285.4" height="13"/>
		<rect x="528.7" y="658.3" class="st10" width="284.7" height="13"/>
		<rect x="529.1" y="657.9" class="st11" width="284" height="12.9"/>
		<rect x="529.4" y="657.5" class="st12" width="283.2" height="12.9"/>
		<rect x="529.8" y="657.2" class="st13" width="282.5" height="12.9"/>
		<rect x="530.2" y="656.8" class="st14" width="281.7" height="12.8"/>
		<rect x="530.5" y="656.4" class="st15" width="281" height="12.8"/>
		<rect x="530.9" y="656" class="st16" width="280.3" height="12.8"/>
		<rect x="531.2" y="655.7" class="st17" width="279.5" height="12.8"/>
		<rect x="531.6" y="655.3" class="st18" width="278.8" height="12.7"/>
		<rect x="532" y="654.9" class="st19" width="278.1" height="12.7"/>
		<rect x="532.3" y="654.6" class="st20" width="277.3" height="12.7"/>
		<rect x="532.7" y="654.2" class="st21" width="276.6" height="12.6"/>
		<rect x="533" y="653.8" class="st22" width="275.9" height="12.6"/>
		<rect x="533.4" y="653.5" class="st23" width="275.1" height="12.6"/>
		<rect x="533.8" y="653.1" class="st24" width="274.4" height="12.5"/>
		<rect x="534.1" y="652.7" class="st25" width="273.7" height="12.5"/>
		<rect x="534.5" y="652.3" class="st26" width="272.9" height="12.5"/>
		<rect x="534.9" y="652" class="st27" width="272.2" height="12.4"/>
		<rect x="535.2" y="651.6" class="st28" width="271.4" height="12.4"/>
		<rect x="535.6" y="651.2" class="st29" width="270.7" height="12.4"/>
		<rect x="535.9" y="650.9" class="st30" width="270" height="12.3"/>
		<rect x="536.3" y="650.5" class="st31" width="269.2" height="12.3"/>
		<rect x="536.7" y="650.1" class="st32" width="268.5" height="12.3"/>
		<rect x="537" y="649.8" class="st33" width="267.8" height="12.3"/>
		<rect x="537.4" y="649.4" class="st34" width="267" height="12.2"/>
		<rect x="537.7" y="649" class="st35" width="266.3" height="12.2"/>
		<rect x="538.1" y="648.7" class="st36" width="265.5" height="12.2"/>
		<rect x="538.5" y="648.3" class="st37" width="264.8" height="12.1"/>
		<rect x="538.8" y="647.9" class="st38" width="264.1" height="12.1"/>
		<rect x="539.2" y="647.5" class="st39" width="263.4" height="12.1"/>
		<rect x="539.5" y="647.2" class="st40" width="262.6" height="12"/>
		<rect x="539.9" y="646.8" class="st41" width="261.9" height="12"/>
		<rect x="540.3" y="646.4" class="st42" width="261.1" height="12"/>
		<rect x="540.6" y="646.1" class="st43" width="260.4" height="12"/>
		<rect x="541" y="645.7" class="st44" width="259.7" height="11.9"/>
		<rect x="541.3" y="645.3" class="st45" width="258.9" height="11.9"/>
		<rect x="541.7" y="645" class="st46" width="258.2" height="11.9"/>
		<rect x="542.1" y="644.6" class="st47" width="257.5" height="11.8"/>
		<rect x="542.4" y="644.2" class="st48" width="256.7" height="11.8"/>
		<rect x="542.8" y="643.9" class="st49" width="256" height="11.8"/>
		<rect x="543.2" y="643.5" class="st50" width="255.2" height="11.7"/>
		<rect x="543.5" y="643.1" class="st51" width="254.5" height="11.7"/>
		<rect x="543.9" y="642.8" class="st52" width="253.8" height="11.7"/>
		<rect x="544.2" y="642.4" class="st53" width="253" height="11.6"/>
		<rect x="544.6" y="642" class="st54" width="252.3" height="11.6"/>
		<rect x="545" y="641.6" class="st55" width="251.6" height="11.6"/>
		<rect x="545.3" y="641.3" class="st56" width="250.8" height="11.5"/>
		<rect x="545.7" y="640.9" class="st57" width="250.1" height="11.5"/>
		<rect x="546" y="640.5" class="st57" width="249.4" height="11.5"/>
		<rect x="546.4" y="640.2" class="st58" width="248.6" height="11.5"/>
		<rect x="546.8" y="639.8" class="st59" width="247.9" height="11.4"/>
		<rect x="547.1" y="639.4" class="st60" width="247.2" height="11.4"/>
		<rect x="547.5" y="639" class="st61" width="246.4" height="11.4"/>
		<rect x="547.8" y="638.7" class="st62" width="245.7" height="11.3"/>
		<rect x="548.2" y="638.3" class="st63" width="245" height="11.3"/>
		<rect x="548.6" y="638" class="st64" width="244.2" height="11.3"/>
		<rect x="548.9" y="637.6" class="st65" width="243.5" height="11.2"/>
		<rect x="549.3" y="637.2" class="st66" width="242.7" height="11.2"/>
		<rect x="549.7" y="636.8" class="st67" width="242" height="11.2"/>
		<rect x="550" y="636.5" class="st68" width="241.3" height="11.2"/>
		<rect x="550.4" y="636.1" class="st69" width="240.5" height="11.1"/>
		<rect x="550.7" y="635.7" class="st70" width="239.8" height="11.1"/>
		<rect x="551.1" y="635.4" class="st71" width="239.1" height="11.1"/>
		<rect x="551.5" y="635" class="st72" width="238.3" height="11"/>
		<rect x="551.8" y="634.6" class="st73" width="237.6" height="11"/>
		<rect x="552.2" y="634.2" class="st74" width="236.9" height="11"/>
		<rect x="552.5" y="633.9" class="st75" width="236.1" height="10.9"/>
		<rect x="552.9" y="633.5" class="st76" width="235.4" height="10.9"/>
		<rect x="553.3" y="633.1" class="st77" width="234.7" height="10.9"/>
		<rect x="553.6" y="632.8" class="st78" width="233.9" height="10.8"/>
		<rect x="554" y="632.4" class="st79" width="233.2" height="10.8"/>
		<rect x="554.3" y="632" class="st80" width="232.4" height="10.8"/>
		<rect x="554.7" y="631.7" class="st81" width="231.7" height="10.8"/>
		<rect x="555.1" y="631.3" class="st82" width="231" height="10.7"/>
		<rect x="555.4" y="630.9" class="st83" width="230.2" height="10.7"/>
		<rect x="555.8" y="630.6" class="st84" width="229.5" height="10.7"/>
		<rect x="556.2" y="630.2" class="st85" width="228.8" height="10.6"/>
		<rect x="556.5" y="629.8" class="st86" width="228" height="10.6"/>
		<rect x="556.9" y="629.5" class="st87" width="227.3" height="10.6"/>
		<rect x="557.2" y="629.1" class="st88" width="226.5" height="10.5"/>
		<rect x="557.6" y="628.7" class="st89" width="225.8" height="10.5"/>
		<rect x="558" y="628.3" class="st90" width="225.1" height="10.5"/>
		<rect x="558.3" y="628" class="st91" width="224.3" height="10.4"/>
		<rect x="558.7" y="627.6" class="st92" width="223.6" height="10.4"/>
		<rect x="559" y="627.2" class="st93" width="222.9" height="10.4"/>
		<rect x="559.4" y="626.9" class="st94" width="222.1" height="10.3"/>
		<rect x="559.8" y="626.5" class="st95" width="221.4" height="10.3"/>
		<rect x="560.1" y="626.1" class="st96" width="220.7" height="10.3"/>
		<rect x="560.5" y="625.8" class="st97" width="219.9" height="10.3"/>
		<rect x="560.8" y="625.4" class="st98" width="219.2" height="10.2"/>
		<rect x="561.2" y="625" class="st99" width="218.5" height="10.2"/>
		<rect x="561.6" y="624.7" class="st100" width="217.7" height="10.2"/>
		<rect x="561.9" y="624.3" class="st101" width="217" height="10.1"/>
		<rect x="562.3" y="623.9" class="st102" width="216.2" height="10.1"/>
		<rect x="562.7" y="623.5" class="st103" width="215.5" height="10.1"/>
		<rect x="563" y="623.2" class="st104" width="214.8" height="10"/>
		<rect x="563.4" y="622.8" class="st105" width="214" height="10"/>
		<rect x="563.7" y="622.4" class="st106" width="213.3" height="10"/>
		<rect x="564.1" y="622.1" class="st107" width="212.6" height="10"/>
		<rect x="564.5" y="621.7" class="st108" width="211.8" height="9.9"/>
		<rect x="564.8" y="621.3" class="st109" width="211.1" height="9.9"/>
		<rect x="565.2" y="621" class="st110" width="210.4" height="9.9"/>
		<rect x="565.5" y="620.6" class="st111" width="209.6" height="9.8"/>
		<rect x="565.9" y="620.2" class="st112" width="208.9" height="9.8"/>
		<rect x="566.3" y="619.8" class="st113" width="208.2" height="9.8"/>
		<rect x="566.6" y="619.5" class="st114" width="207.4" height="9.7"/>
		<rect x="566.7" y="619" class="st113" width="207.2" height="9.7"/>
		<rect x="566.9" y="618.6" class="st112" width="206.9" height="9.7"/>
		<rect x="567" y="618.1" class="st111" width="206.7" height="9.8"/>
		<rect x="567.1" y="617.7" class="st110" width="206.4" height="9.8"/>
		<rect x="567.2" y="617.2" class="st109" width="206.2" height="9.8"/>
		<rect x="567.3" y="616.8" class="st108" width="205.9" height="9.8"/>
		<rect x="567.5" y="616.3" class="st107" width="205.7" height="9.8"/>
		<rect x="567.6" y="615.8" class="st106" width="205.4" height="9.8"/>
		<rect x="567.7" y="615.4" class="st105" width="205.1" height="9.8"/>
		<rect x="567.8" y="614.9" class="st104" width="204.9" height="9.8"/>
		<rect x="568" y="614.5" class="st103" width="204.6" height="9.8"/>
		<rect x="568.1" y="614" class="st102" width="204.4" height="9.8"/>
		<rect x="568.2" y="613.6" class="st101" width="204.1" height="9.8"/>
		<rect x="568.3" y="613.1" class="st100" width="203.9" height="9.8"/>
		<rect x="568.5" y="612.7" class="st99" width="203.6" height="9.8"/>
		<rect x="568.6" y="612.2" class="st98" width="203.4" height="9.8"/>
		<rect x="568.7" y="611.8" class="st97" width="203.1" height="9.8"/>
		<rect x="568.8" y="611.3" class="st96" width="202.9" height="9.8"/>
		<rect x="568.9" y="610.8" class="st95" width="202.6" height="9.8"/>
		<rect x="569.1" y="610.4" class="st94" width="202.4" height="9.8"/>
		<rect x="569.2" y="609.9" class="st93" width="202.1" height="9.8"/>
		<rect x="569.3" y="609.5" class="st92" width="201.9" height="9.8"/>
		<rect x="569.4" y="609" class="st91" width="201.6" height="9.8"/>
		<rect x="569.6" y="608.6" class="st90" width="201.4" height="9.9"/>
		<rect x="569.7" y="608.1" class="st89" width="201.1" height="9.9"/>
		<rect x="569.8" y="607.7" class="st88" width="200.9" height="9.9"/>
		<rect x="569.9" y="607.2" class="st87" width="200.6" height="9.9"/>
		<rect x="570" y="606.8" class="st86" width="200.3" height="9.9"/>
		<rect x="570.2" y="606.3" class="st85" width="200.1" height="9.9"/>
		<rect x="570.3" y="605.9" class="st84" width="199.8" height="9.9"/>
		<rect x="570.4" y="605.4" class="st83" width="199.6" height="9.9"/>
		<rect x="570.5" y="605" class="st82" width="199.3" height="9.9"/>
		<rect x="570.7" y="604.5" class="st81" width="199.1" height="9.9"/>
		<rect x="570.8" y="604" class="st80" width="198.8" height="9.9"/>
		<rect x="570.9" y="603.6" class="st79" width="198.6" height="9.9"/>
		<rect x="571" y="603.1" class="st78" width="198.3" height="9.9"/>
		<rect x="571.2" y="602.7" class="st77" width="198.1" height="9.9"/>
		<rect x="571.3" y="602.2" class="st76" width="197.8" height="9.9"/>
		<rect x="571.4" y="601.8" class="st75" width="197.6" height="9.9"/>
		<rect x="571.5" y="601.3" class="st74" width="197.3" height="9.9"/>
		<rect x="571.6" y="600.9" class="st73" width="197.1" height="10"/>
		<rect x="571.8" y="600.4" class="st72" width="196.8" height="10"/>
		<rect x="571.9" y="600" class="st71" width="196.5" height="10"/>
		<rect x="572" y="599.5" class="st70" width="196.3" height="10"/>
		<rect x="572.1" y="599" class="st69" width="196" height="10"/>
		<rect x="572.2" y="598.6" class="st68" width="195.8" height="10"/>
		<rect x="572.4" y="598.1" class="st67" width="195.5" height="10"/>
		<rect x="572.5" y="597.7" class="st66" width="195.3" height="10"/>
		<rect x="572.6" y="597.2" class="st65" width="195" height="10"/>
		<rect x="572.7" y="596.8" class="st64" width="194.8" height="10"/>
		<rect x="572.9" y="596.3" class="st63" width="194.5" height="10"/>
		<rect x="573" y="595.9" class="st62" width="194.3" height="10"/>
		<rect x="573.1" y="595.4" class="st61" width="194" height="10"/>
		<rect x="573.2" y="595" class="st60" width="193.8" height="10"/>
		<rect x="573.3" y="594.5" class="st59" width="193.5" height="10"/>
		<rect x="573.5" y="594" class="st58" width="193.3" height="10"/>
		<rect x="573.6" y="593.6" class="st57" width="193" height="10"/>
		<rect x="573.7" y="593.1" class="st57" width="192.8" height="10"/>
		<rect x="573.8" y="592.7" class="st56" width="192.5" height="10"/>
		<rect x="574" y="592.2" class="st55" width="192.3" height="10"/>
		<rect x="574.1" y="591.8" class="st54" width="192" height="10"/>
		<rect x="574.2" y="591.3" class="st53" width="191.8" height="10.1"/>
		<rect x="574.3" y="590.9" class="st52" width="191.5" height="10.1"/>
		<rect x="574.5" y="590.4" class="st51" width="191.2" height="10.1"/>
		<rect x="574.6" y="590" class="st50" width="191" height="10.1"/>
		<rect x="574.7" y="589.5" class="st49" width="190.7" height="10.1"/>
		<rect x="574.8" y="589.1" class="st48" width="190.5" height="10.1"/>
		<rect x="575" y="588.6" class="st47" width="190.2" height="10.1"/>
		<rect x="575.1" y="588.2" class="st46" width="190" height="10.1"/>
		<rect x="575.2" y="587.7" class="st45" width="189.7" height="10.1"/>
		<rect x="575.3" y="587.2" class="st44" width="189.5" height="10.1"/>
		<rect x="575.4" y="586.8" class="st43" width="189.2" height="10.1"/>
		<rect x="575.6" y="586.3" class="st42" width="189" height="10.1"/>
		<rect x="575.7" y="585.9" class="st41" width="188.7" height="10.1"/>
		<rect x="575.8" y="585.4" class="st40" width="188.5" height="10.1"/>
		<rect x="575.9" y="585" class="st39" width="188.2" height="10.1"/>
		<rect x="576" y="584.5" class="st38" width="188" height="10.1"/>
		<rect x="576.2" y="584.1" class="st37" width="187.7" height="10.1"/>
		<rect x="576.3" y="583.6" class="st36" width="187.5" height="10.2"/>
		<rect x="576.4" y="583.2" class="st35" width="187.2" height="10.2"/>
		<rect x="576.5" y="582.7" class="st34" width="187" height="10.2"/>
		<rect x="576.7" y="582.2" class="st33" width="186.7" height="10.2"/>
		<rect x="576.8" y="581.8" class="st32" width="186.4" height="10.2"/>
		<rect x="576.9" y="581.3" class="st31" width="186.2" height="10.2"/>
		<rect x="577" y="580.9" class="st30" width="185.9" height="10.2"/>
		<rect x="577.2" y="580.4" class="st29" width="185.7" height="10.2"/>
		<rect x="577.3" y="580" class="st28" width="185.4" height="10.2"/>
		<rect x="577.4" y="579.5" class="st27" width="185.2" height="10.2"/>
		<rect x="577.5" y="579.1" class="st26" width="184.9" height="10.2"/>
		<rect x="577.6" y="578.6" class="st25" width="184.7" height="10.2"/>
		<rect x="577.8" y="578.2" class="st24" width="184.4" height="10.2"/>
		<rect x="577.9" y="577.7" class="st23" width="184.2" height="10.2"/>
		<rect x="578" y="577.2" class="st22" width="183.9" height="10.2"/>
		<rect x="578.1" y="576.8" class="st21" width="183.7" height="10.2"/>
		<rect x="578.2" y="576.3" class="st20" width="183.4" height="10.2"/>
		<rect x="578.4" y="575.9" class="st19" width="183.2" height="10.2"/>
		<rect x="578.5" y="575.4" class="st18" width="182.9" height="10.2"/>
		<rect x="578.6" y="575" class="st17" width="182.7" height="10.2"/>
		<rect x="578.7" y="574.5" class="st16" width="182.4" height="10.2"/>
		<rect x="578.9" y="574.1" class="st15" width="182.2" height="10.3"/>
		<rect x="579" y="573.6" class="st14" width="181.9" height="10.3"/>
		<rect x="579.1" y="573.2" class="st13" width="181.6" height="10.3"/>
		<rect x="579.2" y="572.7" class="st12" width="181.4" height="10.3"/>
		<rect x="579.3" y="572.3" class="st11" width="181.1" height="10.3"/>
		<rect x="579.5" y="571.8" class="st10" width="180.9" height="10.3"/>
		<rect x="579.6" y="571.3" class="st9" width="180.6" height="10.3"/>
		<rect x="579.7" y="570.9" class="st8" width="180.4" height="10.3"/>
		<rect x="579.8" y="570.4" class="st7" width="180.1" height="10.3"/>
		<rect x="580" y="570" class="st6" width="179.9" height="10.3"/>
		<rect x="580.1" y="569.5" class="st5" width="179.6" height="10.3"/>
		<rect x="580.2" y="569.1" class="st4" width="179.4" height="10.3"/>
		<rect x="580.3" y="568.6" class="st3" width="179.1" height="10.3"/>
		<rect x="580.5" y="568.2" class="st2" width="178.9" height="10.3"/>
		<rect x="580.6" y="567.7" class="st1" width="178.6" height="10.3"/>
		<rect x="580.7" y="567.3" class="st0" width="178.4" height="10.3"/>
		<rect x="580.8" y="566.7" class="st1" width="178.2" height="10.3"/>
		<rect x="580.9" y="566" class="st2" width="178" height="10.3"/>
		<rect x="581" y="565.4" class="st3" width="177.8" height="10.3"/>
		<rect x="581.1" y="564.8" class="st4" width="177.6" height="10.3"/>
		<rect x="581.2" y="564.2" class="st5" width="177.4" height="10.3"/>
		<rect x="581.3" y="563.6" class="st6" width="177.2" height="10.3"/>
		<rect x="581.4" y="563" class="st7" width="177.1" height="10.3"/>
		<rect x="581.5" y="562.4" class="st8" width="176.9" height="10.3"/>
		<rect x="581.6" y="561.8" class="st9" width="176.7" height="10.3"/>
		<rect x="581.7" y="561.1" class="st10" width="176.5" height="10.3"/>
		<rect x="581.8" y="560.5" class="st11" width="176.3" height="10.3"/>
		<rect x="581.9" y="559.9" class="st12" width="176.1" height="10.3"/>
		<rect x="582" y="559.3" class="st13" width="176" height="10.3"/>
		<rect x="582.1" y="558.7" class="st14" width="175.8" height="10.3"/>
		<rect x="582.2" y="558.1" class="st15" width="175.6" height="10.3"/>
		<rect x="582.3" y="557.5" class="st16" width="175.4" height="10.3"/>
		<rect x="582.4" y="556.8" class="st17" width="175.2" height="10.3"/>
		<rect x="582.5" y="556.2" class="st18" width="175" height="10.3"/>
		<rect x="582.6" y="555.6" class="st19" width="174.8" height="10.3"/>
		<rect x="582.7" y="555" class="st20" width="174.7" height="10.3"/>
		<rect x="582.8" y="554.4" class="st21" width="174.5" height="10.3"/>
		<rect x="582.9" y="553.8" class="st22" width="174.3" height="10.3"/>
		<rect x="583" y="553.2" class="st23" width="174.1" height="10.3"/>
		<rect x="583.1" y="552.6" class="st24" width="173.9" height="10.3"/>
		<rect x="583.2" y="552" class="st25" width="173.8" height="10.3"/>
		<rect x="583.3" y="551.3" class="st25" width="173.6" height="10.3"/>
		<rect x="583.4" y="550.7" class="st26" width="173.4" height="10.2"/>
		<rect x="583.5" y="550.1" class="st27" width="173.2" height="10.2"/>
		<rect x="583.6" y="549.5" class="st28" width="173" height="10.2"/>
		<rect x="583.7" y="548.9" class="st29" width="172.8" height="10.2"/>
		<rect x="583.8" y="548.3" class="st30" width="172.6" height="10.2"/>
		<rect x="583.9" y="547.7" class="st31" width="172.5" height="10.2"/>
		<rect x="584" y="547" class="st32" width="172.3" height="10.2"/>
		<rect x="584.1" y="546.4" class="st33" width="172.1" height="10.2"/>
		<rect x="584.2" y="545.8" class="st34" width="171.9" height="10.2"/>
		<rect x="584.3" y="545.2" class="st35" width="171.7" height="10.2"/>
		<rect x="584.4" y="544.6" class="st36" width="171.5" height="10.2"/>
		<rect x="584.5" y="544" class="st37" width="171.3" height="10.2"/>
		<rect x="584.6" y="543.4" class="st38" width="171.2" height="10.2"/>
		<rect x="584.7" y="542.8" class="st39" width="171" height="10.2"/>
		<rect x="584.8" y="542.2" class="st40" width="170.8" height="10.2"/>
		<rect x="584.9" y="541.5" class="st41" width="170.6" height="10.2"/>
		<rect x="585" y="540.9" class="st42" width="170.4" height="10.2"/>
		<rect x="585.1" y="540.3" class="st43" width="170.2" height="10.2"/>
		<rect x="585.2" y="539.7" class="st44" width="170.1" height="10.2"/>
		<rect x="585.3" y="539.1" class="st45" width="169.9" height="10.2"/>
		<rect x="585.4" y="538.5" class="st46" width="169.7" height="10.2"/>
		<rect x="585.5" y="537.9" class="st47" width="169.5" height="10.2"/>
		<rect x="585.6" y="537.2" class="st48" width="169.3" height="10.2"/>
		<rect x="585.7" y="536.6" class="st49" width="169.1" height="10.2"/>
		<rect x="585.8" y="536" class="st50" width="169" height="10.2"/>
		<rect x="585.9" y="535.4" class="st51" width="168.8" height="10.2"/>
		<rect x="586" y="534.2" class="st52" width="168.7" height="10.2"/>
		<rect x="586" y="533" class="st53" width="168.5" height="10.3"/>
		<rect x="586.1" y="531.8" class="st54" width="168.4" height="10.3"/>
		<rect x="586.2" y="530.6" class="st55" width="168.3" height="10.4"/>
		<rect x="586.2" y="529.5" class="st56" width="168.2" height="10.4"/>
		<rect x="586.3" y="528.3" class="st57" width="168.1" height="10.5"/>
		<rect x="586.3" y="527.1" class="st58" width="168" height="10.5"/>
		<rect x="586.4" y="525.9" class="st59" width="167.9" height="10.6"/>
		<rect x="586.5" y="524.7" class="st60" width="167.8" height="10.6"/>
		<rect x="586.5" y="523.5" class="st61" width="167.6" height="10.7"/>
		<rect x="586.6" y="522.3" class="st62" width="167.5" height="10.7"/>
		<rect x="586.6" y="521.1" class="st63" width="167.4" height="10.8"/>
		<rect x="586.7" y="519.9" class="st64" width="167.3" height="10.8"/>
		<rect x="586.7" y="518.7" class="st64" width="167.2" height="10.9"/>
		<rect x="586.8" y="517.5" class="st65" width="167.1" height="10.9"/>
		<rect x="586.8" y="516.3" class="st66" width="167" height="11"/>
		<rect x="586.9" y="515.2" class="st67" width="166.8" height="11"/>
		<rect x="587" y="514" class="st68" width="166.7" height="11.1"/>
		<rect x="587" y="512.8" class="st69" width="166.6" height="11.2"/>
		<rect x="587.1" y="511.6" class="st70" width="166.5" height="11.2"/>
		<rect x="587.1" y="510.4" class="st71" width="166.4" height="11.2"/>
		<rect x="587.2" y="509.2" class="st72" width="166.3" height="11.3"/>
		<rect x="587.2" y="508" class="st73" width="166.2" height="11.3"/>
		<rect x="587.3" y="506.8" class="st74" width="166" height="11.4"/>
		<rect x="587.4" y="505.6" class="st75" width="165.9" height="11.5"/>
		<rect x="587.4" y="504.4" class="st76" width="165.8" height="11.5"/>
		<rect x="587.4" y="503.9" class="st75" width="165.8" height="11.5"/>
		<rect x="587.4" y="503.3" class="st74" width="165.8" height="11.5"/>
		<rect x="587.4" y="502.7" class="st73" width="165.8" height="11.5"/>
		<rect x="587.4" y="502.2" class="st72" width="165.8" height="11.5"/>
		<rect x="587.4" y="501.6" class="st71" width="165.8" height="11.5"/>
		<rect x="587.4" y="501" class="st70" width="165.8" height="11.6"/>
		<rect x="587.4" y="500.5" class="st69" width="165.8" height="11.6"/>
		<rect x="587.4" y="499.9" class="st68" width="165.8" height="11.6"/>
		<rect x="587.4" y="499.3" class="st67" width="165.8" height="11.6"/>
		<rect x="587.4" y="498.8" class="st66" width="165.8" height="11.6"/>
		<rect x="587.4" y="498.2" class="st65" width="165.8" height="11.6"/>
		<rect x="587.4" y="497.6" class="st64" width="165.8" height="11.6"/>
		<rect x="587.4" y="497.1" class="st63" width="165.8" height="11.6"/>
		<rect x="587.4" y="496.5" class="st62" width="165.8" height="11.6"/>
		<rect x="587.4" y="496" class="st61" width="165.8" height="11.6"/>
		<rect x="587.4" y="495.4" class="st60" width="165.8" height="11.6"/>
		<rect x="587.4" y="494.8" class="st59" width="165.8" height="11.6"/>
		<rect x="587.4" y="494.2" class="st58" width="165.8" height="11.6"/>
		<rect x="587.4" y="493.7" class="st57" width="165.8" height="11.6"/>
		<rect x="587.4" y="493.1" class="st56" width="165.8" height="11.6"/>
		<rect x="587.4" y="492.6" class="st55" width="165.8" height="11.6"/>
		<rect x="587.4" y="492" class="st54" width="165.8" height="11.7"/>
		<rect x="587.4" y="491.4" class="st53" width="165.8" height="11.7"/>
		<rect x="587.4" y="490.9" class="st52" width="165.8" height="11.7"/>
		<rect x="587.4" y="490.3" class="st51" width="165.8" height="11.7"/>
		<rect x="587.4" y="489.7" class="st50" width="165.8" height="11.7"/>
		<rect x="587.4" y="489.2" class="st49" width="165.8" height="11.7"/>
		<rect x="587.4" y="488.6" class="st48" width="165.8" height="11.7"/>
		<rect x="587.4" y="488" class="st47" width="165.8" height="11.7"/>
		<rect x="587.4" y="487.5" class="st46" width="165.8" height="11.7"/>
		<rect x="587.4" y="486.9" class="st45" width="165.8" height="11.7"/>
		<rect x="587.4" y="486.3" class="st44" width="165.8" height="11.7"/>
		<rect x="587.4" y="485.8" class="st43" width="165.8" height="11.7"/>
		<rect x="587.4" y="485.2" class="st42" width="165.8" height="11.7"/>
		<rect x="587.4" y="484.6" class="st41" width="165.8" height="11.8"/>
		<rect x="587.4" y="484.1" class="st40" width="165.8" height="11.8"/>
		<rect x="587.4" y="483.5" class="st39" width="165.8" height="11.8"/>
		<rect x="587.4" y="482.9" class="st38" width="165.8" height="11.8"/>
		<rect x="587.4" y="482.4" class="st37" width="165.8" height="11.8"/>
		<rect x="587.4" y="481.8" class="st36" width="165.8" height="11.8"/>
		<rect x="587.4" y="481.2" class="st35" width="165.8" height="11.8"/>
		<rect x="587.4" y="480.7" class="st34" width="165.8" height="11.8"/>
		<rect x="587.4" y="480.1" class="st33" width="165.8" height="11.8"/>
		<rect x="587.4" y="479.5" class="st32" width="165.8" height="11.8"/>
		<rect x="587.4" y="479" class="st31" width="165.8" height="11.8"/>
		<rect x="587.4" y="478.4" class="st30" width="165.8" height="11.8"/>
		<rect x="587.4" y="477.9" class="st29" width="165.8" height="11.8"/>
		<rect x="587.4" y="477.3" class="st28" width="165.8" height="11.8"/>
		<rect x="587.4" y="476.7" class="st27" width="165.8" height="11.9"/>
		<rect x="587.4" y="476.2" class="st26" width="165.8" height="11.9"/>
		<rect x="587.4" y="475.6" class="st25" width="165.8" height="11.9"/>
		<rect x="587.4" y="475" class="st25" width="165.8" height="11.9"/>
		<rect x="587.4" y="474.5" class="st24" width="165.8" height="11.9"/>
		<rect x="587.4" y="473.9" class="st23" width="165.8" height="11.9"/>
		<rect x="587.4" y="473.3" class="st22" width="165.8" height="11.9"/>
		<rect x="587.4" y="472.8" class="st21" width="165.8" height="11.9"/>
		<rect x="587.4" y="472.2" class="st20" width="165.8" height="11.9"/>
		<rect x="587.4" y="471.6" class="st19" width="165.8" height="11.9"/>
		<rect x="587.4" y="471.1" class="st18" width="165.8" height="11.9"/>
		<rect x="587.4" y="470.5" class="st17" width="165.8" height="11.9"/>
		<rect x="587.4" y="469.9" class="st16" width="165.8" height="11.9"/>
		<rect x="587.4" y="469.4" class="st15" width="165.8" height="11.9"/>
		<rect x="587.4" y="468.8" class="st14" width="165.8" height="12"/>
		<rect x="587.4" y="468.2" class="st13" width="165.8" height="12"/>
		<rect x="587.4" y="467.7" class="st12" width="165.8" height="12"/>
		<rect x="587.4" y="467.1" class="st11" width="165.8" height="12"/>
		<rect x="587.4" y="466.5" class="st10" width="165.8" height="12"/>
		<rect x="587.4" y="466" class="st9" width="165.8" height="12"/>
		<rect x="587.4" y="465.4" class="st8" width="165.8" height="12"/>
		<rect x="587.4" y="464.9" class="st7" width="165.8" height="12"/>
		<rect x="587.4" y="464.3" class="st6" width="165.8" height="12"/>
		<rect x="587.4" y="463.7" class="st5" width="165.8" height="12"/>
		<rect x="587.4" y="463.1" class="st4" width="165.8" height="12"/>
		<rect x="587.4" y="462.6" class="st3" width="165.8" height="12"/>
		<rect x="587.4" y="462" class="st2" width="165.8" height="12"/>
		<rect x="587.4" y="461.5" class="st1" width="165.8" height="12"/>
		<rect x="587.4" y="460.9" class="st0" width="165.8" height="12"/>
		<rect x="587.4" y="460.3" class="st115" width="165.8" height="12"/>
		<rect x="587.4" y="459.8" class="st116" width="165.8" height="12.1"/>
		<rect x="587.4" y="459.2" class="st117" width="165.8" height="12.1"/>
		<rect x="587.4" y="458.6" class="st118" width="165.8" height="12.1"/>
		<rect x="587.4" y="458.1" class="st119" width="165.8" height="12.1"/>
		<rect x="587.4" y="457.5" class="st120" width="165.8" height="12.1"/>
		<rect x="587.4" y="456.9" class="st121" width="165.8" height="12.1"/>
		<rect x="587.4" y="456.4" class="st122" width="165.8" height="12.1"/>
		<rect x="587.4" y="455.8" class="st123" width="165.8" height="12.1"/>
		<rect x="587.4" y="455.2" class="st124" width="165.8" height="12.1"/>
		<rect x="587.4" y="454.7" class="st125" width="165.8" height="12.1"/>
		<rect x="587.4" y="454.1" class="st126" width="165.8" height="12.1"/>
		<rect x="587.4" y="453.5" class="st127" width="165.8" height="12.1"/>
		<rect x="587.4" y="453" class="st128" width="165.8" height="12.1"/>
		<rect x="587.4" y="452.4" class="st129" width="165.8" height="12.1"/>
		<rect x="587.4" y="451.8" class="st130" width="165.8" height="12.2"/>
		<rect x="587.4" y="451.3" class="st131" width="165.8" height="12.2"/>
		<rect x="587.4" y="450.7" class="st132" width="165.8" height="12.2"/>
		<rect x="587.4" y="450.1" class="st133" width="165.8" height="12.2"/>
		<rect x="587.4" y="449.6" class="st134" width="165.8" height="12.2"/>
		<rect x="587.4" y="449" class="st135" width="165.8" height="12.2"/>
		<rect x="587.4" y="448.5" class="st136" width="165.8" height="12.2"/>
		<rect x="587.4" y="447.9" class="st137" width="165.8" height="12.2"/>
		<rect x="587.4" y="447.3" class="st138" width="165.8" height="12.2"/>
		<rect x="587.4" y="446.8" class="st139" width="165.8" height="12.2"/>
		<rect x="587.4" y="446.2" class="st140" width="165.8" height="12.2"/>
	</g>
	<path id="DesktopScreenholder" class="st141" d="M929.5,439H411.1c-7.1,0-12.9-5.1-12.9-11.4V144.3c0-6.3,5.8-11.4,12.9-11.4h518.4
		c7.1,0,12.9,5.1,12.9,11.4v283.3C942.5,433.9,936.7,439,929.5,439z"/>
</g>
<g id="Tablet">
	<path id="TabletScreenHolder" class="st141" d="M491.8,649.2H222.2c-7.3,0-13.2-6.3-13.2-14.2V269.6c0-7.8,5.9-14.2,13.2-14.2
		h269.6c7.3,0,13.2,6.3,13.2,14.2V635C505,642.9,499.1,649.2,491.8,649.2z"/>
</g>
<g id="Mobile">
	<path id="MobileScreenHolder" class="st141" d="M1021.9,549.1H894.2c-4,0-7.2-4-7.2-9v-266c0-5,3.2-9,7.2-9h127.7c4,0,7.2,4,7.2,9
		v266C1029,545.1,1025.8,549.1,1021.9,549.1z"/>
</g>
</svg>
